<?xml version="1.0" encoding="utf-8"?>
<!-- Generator: Adobe Illustrator 16.0.3, SVG Export Plug-In . SVG Version: 6.00 Build 0)  -->
<!DOCTYPE svg PUBLIC "-//W3C//DTD SVG 1.1//EN" "http://www.w3.org/Graphics/SVG/1.1/DTD/svg11.dtd">
<svg version="1.1" id="layer_1" xmlns="http://www.w3.org/2000/svg" xmlns:xlink="http://www.w3.org/1999/xlink" x="0px" y="0px"
	 width="164px" height="166px" viewBox="0 0 164 166" enable-background="new 0 0 164 166" xml:space="preserve">
<g>
	<radialGradient id="SVGID_1_" cx="97.541" cy="61.3027" r="66.9656" fx="87.2768" fy="61.0552" gradientUnits="userSpaceOnUse">
		<stop  offset="0" style="stop-color:#15C7B6"/>
		<stop  offset="1" style="stop-color:#0089A4"/>
	</radialGradient>
	<path fill="url(#SVGID_1_)" d="M143.125,62.104c1.719,1.619,3.472,5.726,3.472,5.726l-0.916,8.403l1.416,5.952l-0.633,4.264
		c0,0,1.033,3.098,1.492,4.556c-0.836,2.841-1.962,5.8-2.798,8.64c1.657,2.029,2.891,4.586,3.889,7.008
		c-1.6,10.689-7.93,20.932-17.077,26.691c-3.669-0.395-7.168-0.193-10.784,0.54c-5.045,5.729-23.153,13.835-32.306,14.776
		c-0.888,1.349-1.818,2.716-2.705,4.064c-5.591-0.117-11.056-0.671-16.398-2.318c-1.196-2.165-2.021-4.459-2.749-6.822
		c-3.841,0.537-7.232,1.441-10.847,2.846c-6.488-2.131-16.074-12.375-16.074-12.375s-1.432-8.661-3.082-12.938
		c-2.43-1.334-6.097-5.295-6.097-5.295s-1.84-5.238-2.328-8c-1.431-0.938-2.306-1.676-3.735-2.613
		c-2.042-5.134-2.905-10.643-2.975-16.167c-1.995-1.611-3.902-3.245-5.604-5.163c-1.927-10.791,7.81-30.938,7.81-30.938
		s7.391-4.583,11.51-5.928c2.035-4.595,8.316-12.717,8.316-12.717s0.894-4.435,1.455-6.623c7.06-4.641,14.727-7.982,22.979-9.793
		c2.29,1.45,4.045,3.063,5.987,4.954c11.215-0.205,22.351,1.176,33.136,4.257c1.68-1.168,3.277-2.32,5.124-3.202
		c6.182,1.747,11.816,4.638,16.478,9.059c0.028,1.705-0.207,3.326-0.523,5.001C135.642,44.206,141.652,52.767,143.125,62.104z"/>
	<path fill="#00D1C0" d="M65.806,25.165c-2.306-1.021-4.612-2.041-6.918-3.062c2.895-1.455,5.878-2.75,9.037-3.466
		c2.075,1.342,3.889,3.12,5.283,5.16c11.51-0.248,23.201,1.226,34.26,4.429c1.719-1.27,3.54-2.545,5.384-3.625
		c1.194,0.228,2.446,0.601,3.571,1.062c-2.648,0.239-5.081,1.367-7.113,3.083c0.071,0.027,0.142,0.055,0.213,0.083
		c3.766,1.465,7.229,3.435,10.684,5.534c5.056,3.074,9.92,6.625,13.616,11.247c3.84,4.801,6.308,10.688,7.038,16.793
		c1.606,1.373,3.09,2.979,4.078,4.846c-0.185,1.613-0.374,3.488-0.56,5.101c-1.175-0.324-2.445-0.587-3.661-0.511
		c-0.039,2.489-0.376,5.081-0.837,7.527c1.292-12.084-3.605-24.863-12.183-33.474c-8.576-8.61-20.765-14.509-32.854-13.266
		c0.027-0.632,0.009-1.481,0.037-2.113c-7.694-0.881-16.147-0.156-23.206,3.032c0.235,0.573,0.169,0.87,0.404,1.442
		c-7.076,3.156-15.426,6.518-21.644,11.141c-0.573-0.655-1.692-1.068-2.559-0.989c-5.53,4.109-10.155,12.565-13.29,18.701
		c0-8.383,5.044-17.834,10.934-23.8C51.569,33.916,58.283,28.833,65.806,25.165z M34.588,50.117
		c-3.295,0.799-6.502,2.181-9.526,3.713c-1.216,3.331-2.433,6.662-3.648,9.993c1.598-0.282,2.96-0.377,4.534,0.019
		C28.288,59.296,31.3,54.032,34.588,50.117z M144.585,100.998c-0.657,1.21-1.314,2.42-1.972,3.629c1.6,1.17,3.15,2.498,4.568,3.884
		c0.229-0.519,0.736-1.031,0.964-1.55C147.264,104.899,145.841,102.856,144.585,100.998z"/>
	<path fill="#EA64A1" d="M145.681,76.233l1.545,5.921l0.006,0.022l-0.004,0.028l-0.54,4.277l-0.01-0.104l1.593,4.528l0.03,0.087
		l-0.028,0.105c-0.803,2.939-1.816,5.802-2.616,8.694l-0.096-0.476c1.765,2.148,2.919,4.655,3.965,7.139l0.056,0.13l-0.022,0.144
		c-0.821,5.459-2.825,10.718-5.771,15.375c-2.946,4.652-6.861,8.729-11.542,11.678l-0.153,0.097l-0.178-0.02
		c-3.542-0.391-7.132-0.187-10.627,0.532l0.285-0.164c-2.146,2.274-4.715,3.919-7.309,5.464c-2.61,1.523-5.311,2.871-8.062,4.104
		c-2.75,1.232-5.559,2.335-8.428,3.275c-2.871,0.93-5.794,1.746-8.843,2.104l0.379-0.23l-2.705,4.064l-0.158,0.238l-0.284-0.005
		c-5.555-0.111-11.175-0.68-16.54-2.342l-0.2-0.063l-0.101-0.182c-1.217-2.2-2.065-4.561-2.791-6.92l0.566,0.359
		c-3.678,0.502-7.273,1.459-10.73,2.815l-0.174,0.068l-0.175-0.06c-1.695-0.572-3.197-1.467-4.645-2.408
		c-1.446-0.947-2.812-1.996-4.134-3.09c-2.64-2.193-5.172-4.498-7.469-7.055l-0.098-0.109l-0.02-0.129
		c-0.326-2.183-0.702-4.369-1.141-6.537c-0.445-2.166-0.929-4.332-1.651-6.412l0.078,0.089c-1.184-0.714-2.197-1.619-3.186-2.542
		c-0.984-0.93-1.923-1.902-2.828-2.904c0.947,0.963,1.926,1.893,2.944,2.775c1.019,0.875,2.074,1.734,3.235,2.367l0.055,0.03
		l0.024,0.06c0.825,2.083,1.401,4.24,1.943,6.398c0.535,2.162,1.005,4.334,1.428,6.526l-0.117-0.237
		c1.189,1.193,2.431,2.355,3.657,3.521c1.225,1.169,2.498,2.287,3.802,3.36c1.302,1.078,2.643,2.106,4.046,3.024
		c1.399,0.913,2.855,1.771,4.396,2.29l-0.349,0.01c3.519-1.381,7.212-2.365,10.962-2.875l0.438-0.061l0.129,0.42
		c0.717,2.33,1.543,4.619,2.708,6.724l-0.301-0.244c5.237,1.623,10.754,2.187,16.257,2.296l-0.443,0.232l2.705-4.063l0.135-0.202
		l0.245-0.028c2.913-0.342,5.799-1.141,8.625-2.058c2.829-0.928,5.609-2.02,8.33-3.238c2.72-1.22,5.392-2.553,7.96-4.053
		c2.545-1.508,5.077-3.155,7.055-5.255l0.125-0.132l0.161-0.033c3.583-0.738,7.296-0.95,10.942-0.547l-0.331,0.076
		c4.537-2.859,8.349-6.822,11.219-11.356c2.871-4.538,4.824-9.667,5.623-14.974l0.033,0.273c-1.004-2.456-2.192-4.846-3.813-6.875
		l-0.177-0.221l0.08-0.256c0.915-2.916,2.068-5.717,2.979-8.586l0.002,0.192l-1.392-4.583l-0.018-0.057l0.009-0.048l0.726-4.25
		l0.002,0.05L145.681,76.233z"/>
	<path fill="#FED893" d="M30.928,115.822c-0.477-1.306-0.933-2.619-1.357-3.943c-0.422-1.326-0.829-2.657-1.112-4.031l0.063,0.094
		c-1.297-0.811-2.5-1.748-3.777-2.547l-0.056-0.035l-0.029-0.068c-2.143-5.124-3.111-10.694-3.273-16.242l0.188,0.386
		c-2.01-1.571-3.956-3.272-5.674-5.213l-0.098-0.111l-0.024-0.141c-0.464-2.762-0.211-5.519,0.19-8.204
		c0.409-2.693,1.07-5.328,1.85-7.919c0.771-2.595,1.656-5.151,2.636-7.669c0.979-2.52,2.019-5.005,3.178-7.461l0.064-0.136
		l0.129-0.079c1.858-1.135,3.731-2.22,5.65-3.245c1.924-1.017,3.86-2.008,5.971-2.735l-0.313,0.282
		c0.536-1.194,1.178-2.306,1.837-3.404c0.661-1.097,1.359-2.165,2.073-3.221c1.429-2.113,2.922-4.169,4.471-6.198l-0.099,0.214
		l1.462-6.649l0.041-0.188l0.176-0.116c7.035-4.639,14.901-8.067,23.151-9.866l0.207-0.045l0.181,0.113
		c2.25,1.409,4.216,3.204,6.072,5.02l-0.37-0.146c11.221-0.21,22.487,1.186,33.286,4.276l-0.437,0.073
		c1.646-1.146,3.317-2.35,5.195-3.244l0.176-0.083l0.188,0.052c6.147,1.718,12.031,4.732,16.692,9.181l0.157,0.15l0.004,0.217
		c0.032,1.735-0.217,3.446-0.532,5.106l-0.166-0.484c1.813,1.602,3.522,3.321,5.107,5.15c1.583,1.83,3.066,3.757,4.322,5.833
		c2.515,4.135,4.373,8.721,5.05,13.521l-0.077-0.147c0.825,0.842,1.412,1.819,1.963,2.806c0.545,0.991,1.026,2.009,1.465,3.05
		l0.015,0.036l-0.005,0.036l-1.058,8.388l0.774-8.419l0.01,0.072c-0.466-1.011-0.979-2.008-1.549-2.964
		c-0.569-0.949-1.191-1.893-1.967-2.63l-0.063-0.059l-0.016-0.088c-0.824-4.689-2.795-9.109-5.389-13.066
		c-1.303-1.978-2.705-3.895-4.259-5.689c-1.553-1.793-3.231-3.48-5.01-5.052l-0.221-0.195l0.055-0.289
		c0.311-1.635,0.545-3.268,0.515-4.896l0.161,0.366c-4.523-4.316-10.239-7.251-16.262-8.936l0.363-0.031
		c-1.771,0.842-3.394,2.005-5.051,3.16l-0.202,0.14l-0.236-0.067c-10.697-3.062-21.859-4.446-32.983-4.237l-0.217,0.004l-0.153-0.15
		c-1.85-1.809-3.745-3.535-5.904-4.887l0.388,0.068c-8.121,1.771-15.864,5.145-22.805,9.72l0.217-0.304l-1.449,6.596l-0.026,0.121
		l-0.071,0.094c-1.529,2.004-3.019,4.055-4.432,6.145c-0.707,1.045-1.397,2.101-2.045,3.177c-0.646,1.075-1.273,2.166-1.776,3.288
		l-0.093,0.207l-0.22,0.076c-1.98,0.681-3.911,1.661-5.804,2.665c-1.894,1.011-3.763,2.093-5.593,3.211l0.192-0.214
		c-1.138,2.409-2.176,4.891-3.145,7.385c-0.972,2.496-1.849,5.028-2.608,7.59c-0.77,2.559-1.421,5.157-1.819,7.784
		c-0.395,2.617-0.628,5.295-0.194,7.862l-0.122-0.252c1.658,1.871,3.589,3.493,5.534,5.114l0.188,0.157l-0.001,0.229
		c-0.027,5.454,0.733,10.958,2.675,16.091l-0.084-0.104c1.272,0.858,2.438,1.834,3.692,2.68l0.053,0.035l0.01,0.06
		c0.23,1.358,0.592,2.704,0.967,4.039C30.086,113.174,30.496,114.502,30.928,115.822z"/>
	<path fill="#00698C" d="M139.29,107.618c3.24-4.606,5.488-10.595,7.045-16.007c-0.766-0.225-1.286-1.069-1.735-1.728
		c0.517-1.955,0.69-4.081,1.208-6.036c-0.878-0.483-1.743-1.468-2.094-2.406c0.634-3.185,0.721-6.423,0.88-9.667
		c-0.516,8.295-2.457,16.481-5.549,24.233c1.34-4.653,2.52-9.344,3.299-14.133c-2.721,6.918-6.163,13.573-10.764,19.412
		s-10.54,10.761-17.496,13.383c-8.986,3.388-19.017,2.747-28.403,0.712c-22.935-4.969-42.534-20.686-56.905-39.291
		c0.676-7.907,2.397-15.871,5.094-22.857c-4.057,6.151-7.322,12.577-8.777,19.58c-1.725,0.027-4.577-0.72-6.302-0.693
		c-1.812,2.856-1.936,6.628-1.813,10.009c1.807,1.796,3.842,3.015,6.028,4.323c0.575,2.817,1.146,5.446,1.723,8.264
		c-0.241,0.155-0.827-0.23-1.068-0.074c0.42,3.174,1.19,6.009,2.639,8.863c0.746,0.292,1.157,0.544,1.903,0.836
		c1.122,3.688,2.24,6.885,3.362,10.572c2.247,1.834,4.373,3.5,6.619,5.334c1.341,4.346,4.013,12.74,4.013,12.74
		s8.518,7.23,13.229,10.551c3.386-1.055,6.798-1.916,10.183-2.971c0.862,0.402,1.73,0.652,2.593,1.055
		c1.437,2.357,2.866,4.547,4.302,6.904c3.509,1.143,7.185,1.28,10.876,1.306c0.871-1.091,1.571-2.422,2.068-3.727
		c12.416-1.54,24.713-6.472,34.301-14.509c4.255,0.2,8.371-0.055,12.606-0.512c5.717-4.838,10.7-11.815,13.321-18.831
		C143.19,111.436,140.88,109.693,139.29,107.618z M26.997,91.811c0.174-0.301,0.436-0.666,0.734-0.99
		c0.275,2.433,0.688,4.875,1.229,7.26C28.088,96.066,27.423,93.963,26.997,91.811z"/>
	<path fill="#00698C" d="M52.333,25.469c3.507,0.838,7.393,1.576,10.861,0.594c-5.788,2.161-11.767,4.939-17.012,8.205
		c-0.221-1.957-0.088-3.953,0.391-5.862C48.116,27.428,50.548,25.852,52.333,25.469z"/>
	<path fill="#00698C" d="M112.495,29.324c5.095,2.228,10.015,4.856,14.697,7.854c0.587-1.15,1.013-2.402,1.133-3.687
		c-2.062-1.9-4.278-3.831-6.592-5.413c-0.214,0.706-0.914,1.216-1.595,1.502c-0.68,0.286-1.433,0.35-2.17,0.356
		C116.452,29.952,113.951,29.747,112.495,29.324z"/>
	<path fill="#005078" d="M26.798,76.6c-0.503,1.615-0.731,3.314-0.674,5.005c-2.081-1.026-4.366-2.17-6.567-2.903
		c-0.537,1.117-1.063,1.507-0.927,2.739c2.276,1.835,4.686,3.374,7.314,4.653c0.598,17.359,10.274,33.813,24.918,43.155
		c-0.81,1.838-1.864,3.46-2.674,5.298c2.437,2.817,4.779,5.103,7.939,7.073c3.04-1.261,5.854-2.653,8.712-4.284
		c2.666,1.409,5.684,2.266,8.539,3.232c0.47,2.068,0.701,3.82,1.17,5.889c1.838,0.354,3.709,0.863,5.547,1.219
		c1.114-1.562,2.212-3.377,3.325-4.938c13.148-0.351,26.269-5.077,36.446-13.409c3.847,0.211,7.947,0.113,11.8,0.059
		c3.203-2.467,6.348-5.979,8.551-9.369c-2.985-1.818-5.383-5.034-6.293-8.41c-4.932,5.576-10.498,10.396-16.242,15.129
		c-6.902,5.688-15.84,8.252-24.468,10.604c0.111-0.863,0.031-2.275,0.144-3.138c-11.218,2.979-23.645,0.637-33.374-5.691
		c-0.508,0.526-1.291,0.328-1.799,0.854c-10.804-4.93-19.923-14.991-24.5-25.949c-0.575,0.055-1.297-0.625-1.872-0.57
		C29.571,94.623,26.337,85.11,26.798,76.6z"/>
	<path fill="#0089A4" d="M44.041,113.291c0.025-2.382,0.302-4.762,0.825-7.086c0.121-0.539,0.312-1.146,0.816-1.369
		c0.443-0.197,0.955-0.018,1.4,0.172c3.942,1.682,7.502,4.254,10.336,7.469c-3.217-1.672-6.641-3.114-10.124-4.118
		C46.21,109.981,44.762,111.477,44.041,113.291z"/>
	<path fill="#0089A4" d="M71.882,128.939c1.834-1.578,4.085-2.835,6.504-2.873c2.419-0.037,4.962,1.425,5.591,3.761
		C80.157,129.252,75.73,128.612,71.882,128.939z"/>
	<path fill="#0089A4" d="M103.81,114.281c-1.934,1.236-3.523,3.006-4.545,5.061c0.368,1.113,1.953,2.715,1.953,2.715
		s7.052,0.283,10.346-0.899c2.932-1.054,5.414-3.347,7.223-5.883c-1.846-1.752-4.471-2.631-7.015-2.649
		C109.227,112.606,105.954,112.912,103.81,114.281z"/>
	<path fill="#005078" d="M42.792,74.746c1.313,1.817,2.781,3.524,4.381,5.096c7.054-0.146,14.054-1.769,20.368-4.917
		c2.182-4.26,4.766-13.748,4.766-13.748c0.51-0.021-1.248-9.911-3.351-14.728c4.546-1.933,9.037-3.996,13.357-6.389
		c-3.507,3.146-6.692,7.041-9.122,11.078c4.466-0.231,8.902-1.116,13.007-2.888c-2.522,2.74-5.068,5.564-7.591,8.304
		c-0.49,2.555-0.794,5.094-0.815,7.696c3.073,2.169,6.316,3.731,9.943,4.73c-4.6,0.061-9.507,0.12-14.106,0.18
		c-2.332,4.798-6.467,14.577-6.467,14.577s-1.196-2.132-1.729-3.016c-3.572,1.664-7.476,2.98-11.291,3.968
		c-0.85,3.642-1.605,7.322-2.063,11.035c-0.854-4.026-2.854-11.988-2.854-11.988S44.725,78.013,42.792,74.746z M64.587,72.186
		c2.064-2.942,4.365-11.372,4.365-11.372s-0.866-10.366-5.435-14.053c-7.124,2.35-15.414,5.414-17.924,12.482
		c-1.45,4.083-1.995,8.612-1.892,12.944c1.781,1.497,3.562,2.993,5.342,4.489C54.256,77.211,64.587,72.186,64.587,72.186z
		 M51.813,75.459c-1.041-1.022-1.818-2.312-2.234-3.71c2.574-4.615,5.682-8.658,9.549-12.259c2.897,0.735,5.626,1.87,8.238,3.323
		c-0.671,3.223-2.026,6.298-3.721,9.121C59.979,73.669,55.846,75.038,51.813,75.459z M81.711,86.708
		c0.021-1.062,0.488-2.062,1.003-2.991c0.516-0.929,1.388-1.826,1.672-2.85c-2.018,1.888-4.19,3.722-6.447,5.316
		c1.821,1.093,3.635,2.201,5.439,3.322C82.394,89.107,81.688,87.771,81.711,86.708z M79.123,107.895
		c1.021,1.809,2.808,3.273,4.62,4.285c-1.112-2.145-2.141-4.244-3.254-6.389c1.436-2.537,3.896-6.516,4.78-9.292
		c2.595-1.087,3.838-1.099,6.64-1.967c-2.127-0.022-4.171-0.251-6.298-0.273c-0.432-1.007-0.568-2.153-1-3.16
		c-1.309,4.723-3.312,9.502-5.83,13.708c-3.497,1.315-7.332,1.719-11.026,1.16C70.939,107.816,75.522,108.668,79.123,107.895z
		 M77.507,103.568c2.97-3.42,4.689-7.963,4.563-12.491c-2.171-1.999-4.534-3.296-7.232-4.492c-2.019,0.507-4.096,1.387-5.895,2.436
		c-1.226-1.502-2.41-2.9-3.636-4.403c0.79,1.862,1.584,3.726,2.374,5.588c-0.886,0.828-1.657,1.815-2.26,2.866
		c-2.126-1.485-4.019-3.021-5.776-4.929c1.384,2.34,3.05,4.86,4.885,6.866c-0.988,2.003-1.614,4.184-1.837,6.406
		c-1.476,1.195-3.019,2.43-4.494,3.625c1.732-0.459,5.346-1.369,5.346-1.369S71.042,105.639,77.507,103.568z M77.249,102.615
		c-3.391,0.766-6.864,1.16-10.34,1.123c-0.527-0.848-0.921-1.778-1.16-2.747c1.004-2.536,3.204-4.823,5.738-5.831
		s5.482-0.923,7.953,0.23c0.385,1.258,0.319,2.688-0.063,3.945C79.026,100.486,78.018,101.689,77.249,102.615z M57.645,115.056
		c-2.297-4.216-6.8-6.913-11.586-7.286c-0.999,2.484-1.418,5.201-1.215,7.871C46.641,118.842,55.896,119.347,57.645,115.056z
		 M56.16,115.865c-2.564,1.803-6.173,1.981-8.903,0.442c0.205-1.094,0.812-2.251,1.72-2.895
		C51.118,111.896,54.154,114.174,56.16,115.865z M83.668,130.258c-1.601-1.502-3.794-2.354-5.987-2.326
		c-2.194,0.028-4.365,0.937-5.926,2.479c1.644,1.444,3.734,2.307,5.921,2.387C79.862,132.876,81.923,131.578,83.668,130.258z
		 M80.784,131.418c-1.807,0.783-3.919,0.834-5.761,0.137C76.84,130.751,78.942,130.676,80.784,131.418z M119.431,115.816
		c0,0,0.159-5.754-0.682-8.51c-3.044-1.141-6.438-2.441-9.442-1.202c-4.947,2.04-9.237,5.643-12.103,10.163
		c0.519,2.395,1.542,4.764,3.254,6.518c3.501,0.077,6.924,0.379,10.309-0.518C114.15,121.371,119.431,115.816,119.431,115.816z
		 M101.521,122.002c-0.895-0.64-1.559-1.593-1.849-2.652c1.266-1.854,3.065-3.189,5.156-4.006c4.022-1.568,8.374-1.094,12.554-0.012
		c-1.85,2.294-4.26,4.614-6.744,6.2C107.771,122.006,104.352,122.297,101.521,122.002z M133.659,81.441
		c1.968-1.273,3.249-3.425,3.862-5.688s1.109-4.724,0.433-6.968c-2.348-7.779-9.001-13.732-16.876-15.735
		c-3.002,4.409-4.106,10.063-2.985,15.277c1.122,5.214,4.453,9.915,9.001,12.7C129.093,82.252,131.691,82.715,133.659,81.441z
		 M126.934,79.836c-4.33-3.103-6.859-8.556-6.434-13.866c5.435,1.787,10.418,5.287,13.867,9.851
		c0.568,0.752,0.286,1.946-0.001,2.845c-0.287,0.898-0.96,1.666-1.813,2.067c-0.854,0.402-1.845,0.437-2.773,0.271
		C128.852,80.839,127.7,80.386,126.934,79.836z M90.31,110.84c1.126,1.182,2.412,2.209,3.813,3.047
		c0.369-0.988,0.679-1.933,0.661-2.987C93.482,111.176,91.585,111.22,90.31,110.84z M97.429,102.944
		c0.651,1.562,1.047,3.229,1.164,4.915c0.692-0.668,1.331-1.523,1.749-2.391C99.558,104.451,98.582,103.51,97.429,102.944z
		 M112.505,101.655c-0.399,0.868-1.12,1.688-2.069,1.8c-1.101,0.131-2.094-0.736-2.605-1.719s-0.554-2.107-0.996-3.123
		c-0.082,2.119,0.229,4.253,0.916,6.26c3.686-0.838,7.632-0.486,11.11,0.99c0.706-2.264,1.248-4.715,1.657-7.049
		c-0.584,1.495-1.551,2.745-2.638,3.927c-0.295,0.319-0.637,0.642-1.067,0.705c-0.517,0.076-1.008-0.241-1.395-0.594
		c-1.184-1.08-1.915-2.642-1.985-4.243C113.028,99.476,112.905,100.787,112.505,101.655z M137.92,76.497
		c-0.377,1.316-0.759,2.645-1.414,3.847c-0.654,1.203-1.614,2.286-2.868,2.836c-1.32,0.58-2.839,0.52-4.251,0.227
		c-3.203-0.665-6.15-2.505-8.153-5.093c-1.086,1.856-2.66,3.431-4.308,4.814c1.741-0.647,3.111-1.246,4.798-2.024
		c1.221,0.726,2.359,1.518,3.579,2.244c0.16,1.748,0.082,3.583-0.277,5.301c0.683-1.176,1.577-2.209,2.481-3.225
		c1.658,0.097,3.247,0.226,4.905,0.323c0.749,1.55,1.168,3.254,1.062,4.973C135.787,87.096,137.245,81.713,137.92,76.497z
		 M117.576,57.941c0.427-1.772,1.123-3.547,2.037-5.124c-1.894-0.68-3.66-1.711-5.185-3.024
		C116.172,51.998,117.096,55.172,117.576,57.941z M116.479,64.4c0.006-1.25-0.039-2.542-0.032-3.792
		c-2.146-0.093-4.063-1.293-5.868-2.456C112.726,59.918,114.713,62.251,116.479,64.4z M98.598,43.709
		c1.191-1.274,2.132-2.706,2.759-4.334c-0.181-0.952-0.606-1.924-1.28-2.62c-2.979-0.37-5.798-0.032-8.627,0.969
		c-0.51,1.513-0.326,3.246,0.491,4.618C93.778,43.296,96.527,43.624,98.598,43.709z M100.012,40.534
		c-0.49,0.946-1.124,1.724-1.938,2.411c-1.55-0.146-3.086-0.45-4.575-0.905C95.238,40.651,97.938,39.722,100.012,40.534z
		 M32.341,86.848c-0.651,3.537,0.643,7.371,3.305,9.789C35.926,93.158,34.813,89.31,32.341,86.848z M53.802,120.521
		c2.007-0.622,3.755-2.201,4.542-4.149c-2.644,2.513-6.706,3.417-10.166,2.265C49.929,119.799,51.795,121.144,53.802,120.521z
		 M102.666,41.703c0,0-0.465-2.432-0.964-3.54c0.183,0.672,0.148,2.083,0.148,2.083s-1.668,3.08-2.718,4.478
		c-2.318,0.135-4.729-0.162-6.882-1.032c2.472,1.384,5.19,2.206,8.023,2.205C101.268,44.654,102.666,41.703,102.666,41.703z"/>
	<path fill="#FED893" d="M41.229,73.579c-0.229-3.422-0.349-6.877,0.154-10.325c0.489-3.427,1.694-6.868,3.956-9.627
		c2.277-2.736,5.371-4.626,8.609-5.851c1.626-0.613,3.29-1.092,4.964-1.494c1.684-0.368,3.367-0.701,5.064-0.967
		c-1.646,0.495-3.306,0.926-4.932,1.457c-1.634,0.497-3.246,1.054-4.795,1.741c-3.082,1.362-6.001,3.198-8.113,5.772
		c-2.129,2.557-3.313,5.801-3.973,9.104C41.512,66.712,41.424,70.152,41.229,73.579z"/>
	<path fill="#FED893" d="M119.279,73.832c-1.502-3.27-2.208-6.965-1.874-10.616c0.282-3.665,1.598-7.16,3.226-10.397l0.174-0.347
		l0.393,0.089c2.073,0.474,4.072,1.263,5.95,2.262c1.872,1.011,3.628,2.258,5.133,3.766c1.501,1.51,2.761,3.249,3.735,5.125
		c0.946,1.889,1.624,3.905,1.963,5.969c-0.577-2.008-1.358-3.946-2.428-5.713c-1.038-1.78-2.338-3.399-3.85-4.779
		c-1.503-1.388-3.182-2.583-5.002-3.517c-1.814-0.948-3.761-1.613-5.74-2.132l0.566-0.257c-1.676,3.133-2.887,6.507-3.37,10.013
		c-0.24,1.753-0.234,3.537-0.038,5.304C118.297,70.373,118.728,72.118,119.279,73.832z"/>
	<path fill="#FED893" d="M91.231,41.937c-0.589-1.18-0.661-2.626-0.275-3.947l0.038-0.13l0.154-0.104
		c1.282-0.862,2.763-1.457,4.303-1.708c1.536-0.244,3.157-0.112,4.552,0.525c-1.523-0.059-2.968,0.066-4.368,0.408
		c-1.401,0.33-2.736,0.879-4.032,1.541l0.192-0.234C91.322,39.392,91.148,40.633,91.231,41.937z"/>
	<path fill="#FED893" d="M97.263,116.214c1.243-1.823,2.579-3.582,4.103-5.206c1.512-1.631,3.27-3.078,5.259-4.16
		c1.989-1.061,4.249-1.758,6.537-1.676c1.137,0.041,2.265,0.236,3.331,0.608c1.051,0.408,2.047,0.963,2.852,1.726
		c-0.944-0.573-1.946-1.01-2.999-1.24c-1.041-0.258-2.114-0.354-3.177-0.298c-2.122,0.106-4.183,0.771-6.055,1.79
		c-1.89,1-3.583,2.353-5.19,3.813C100.319,113.04,98.834,114.662,97.263,116.214z"/>
	<path fill="#FED893" d="M68.786,87.789c2.106-1.96,4.987-3.11,7.921-3.291l0.131-0.008l0.128,0.063
		c1.573,0.782,3.05,1.768,4.382,2.91c0.661,0.576,1.289,1.188,1.871,1.839c0.57,0.662,1.127,1.332,1.609,2.058
		c-0.668-0.56-1.307-1.136-1.984-1.666c-0.664-0.542-1.336-1.067-2.027-1.562C79.445,87.13,78,86.25,76.502,85.458l0.259,0.055
		C74.011,85.635,71.31,86.441,68.786,87.789z"/>
	<path fill="#FED893" d="M64.713,91.302c0.04-0.7,0.328-1.201,0.673-1.656c0.37-0.434,0.8-0.82,1.477-1.005
		c-0.039,0.701-0.326,1.203-0.673,1.655C65.817,90.729,65.389,91.115,64.713,91.302z"/>
	<path fill="#FED893" d="M60.045,90.164c1.181,1.565,2.245,3.105,3.429,4.573l0.198,0.246l-0.133,0.288
		c-0.787,1.709-1.343,3.492-1.888,5.391c-0.279-1.967,0.131-4,0.946-5.818l0.065,0.535C61.461,93.834,60.491,92.081,60.045,90.164z"
		/>
	<path fill="#0089A4" d="M57.987,38.501c0.684-1.432,0.955-3.003,0.84-4.586c-3.114,0.595-5.886,2.765-7.209,5.645
		C53.655,39.842,56.221,39.554,57.987,38.501z"/>
	<path fill="#0089A4" d="M46.117,129.203c-0.138,1.393-0.688,2.758-1.294,4.021c-0.654-0.463-1.236-0.561-1.891-1.023
		c-0.819-3.19-1.638-6.381-2.456-9.572C41.901,125.146,43.916,127.327,46.117,129.203z"/>
</g>
</svg>
